<?xml version="1.0" encoding="utf-8"?>
<!-- Svg Vector Icons : http://www.onlinewebfonts.com/icon -->
<!DOCTYPE svg PUBLIC "-//W3C//DTD SVG 1.1//EN" "http://www.w3.org/Graphics/SVG/1.1/DTD/svg11.dtd">
<svg version="1.1" xmlns="http://www.w3.org/2000/svg" xmlns:xlink="http://www.w3.org/1999/xlink" x="0px" y="0px" viewBox="0 0 1000 1000" enable-background="new 0 0 1000 1000" xml:space="preserve">
<metadata> Svg Vector Icons : http://www.onlinewebfonts.com/icon </metadata>
<g><path d="M23.5,541.8H830l-206,198.3c-5.3,5.3-5.3,13.8,0,19.1l41.4,41.4c5.3,5.3,13.8,5.3,19.1,0L943.8,551c0.3-0.3,0.6-0.5,0.9-0.8l1.4-1.4l40-38.5c2.8-2.8,4.1-6.6,3.9-10.3c0.2-3.7-1.1-7.5-3.9-10.3l-41.4-39.9c-0.3-0.3-0.5-0.5-0.8-0.7L684.5,199.4c-5.3-5.3-13.8-5.3-19.1,0l-41.4,41.4c-5.3,5.3-5.3,13.8,0,19.1l204,196.4H23.5c-7.5,0-13.5,6-13.5,13.5v58.5C10,535.8,16,541.8,23.5,541.8L23.5,541.8z"/></g>
</svg>