<?xml version="1.0" encoding="utf-8"?>
<!-- Svg Vector Icons : http://www.onlinewebfonts.com/icon -->
<!DOCTYPE svg PUBLIC "-//W3C//DTD SVG 1.1//EN" "http://www.w3.org/Graphics/SVG/1.1/DTD/svg11.dtd">
<svg version="1.1" xmlns="http://www.w3.org/2000/svg" xmlns:xlink="http://www.w3.org/1999/xlink" x="0px" y="0px" viewBox="0 0 1000 1000" enable-background="new 0 0 1000 1000" xml:space="preserve">
<metadata> Svg Vector Icons : http://www.onlinewebfonts.com/icon </metadata>
<g><g transform="translate(0.000000,512.000000) scale(0.100000,-0.100000)"><path d="M3471.5,5012.9c-764.9-36.4-1412.9-141.9-1972.7-325.9c-471.6-155.3-824.4-350.8-1065.9-592.4c-145.7-143.8-218.5-253.1-283.7-427.5l-42.2-109.3l-5.7-2511.4c-3.8-1656.4,1.9-2563.2,13.4-2664.8c28.8-212.8,132.3-421.8,295.2-588.6c477.4-488.9,1470.4-820.5,2754.9-918.3c297.2-23,1286.4-13.4,1376.5,13.4c42.2,11.5,42.2,13.4,42.2,412.2v400.7l-61.4-15.4c-111.2-24.9-1388-15.3-1606.5,11.5C2081.6-2201.2,1385.6-1982.6,1054-1720c-143.8,113.1-151.5,140-151.5,485c0,162.9,3.8,297.1,7.7,297.1c3.8,0,88.2-38.3,186-84.4c446.7-210.9,1065.9-364.3,1805.9-446.7c318.2-34.5,1317.1-47.9,1552.9-19.2l128.5,17.3v402.6v404.5l-80.5-13.4c-182.1-26.8-954.7-34.5-1267.2-13.4c-931.7,67.1-1731.2,283.7-2145.2,580.9C916,15,912.1,24.5,906.4,379.2c-3.8,172.5-1.9,312.5,5.7,312.5c5.7,0,42.2-15.3,82.4-36.4c141.9-70.9,521.5-212.8,724.7-268.4C3210.7-27.2,5206.4,61,6425.7,595.9c99.7,44.1,191.7,84.4,205.1,90.1c15.3,7.7,23-13.4,23-69v-78.6h404.5h402.6l-5.7,1510.7l-5.7,1508.8l-49.8,126.5c-95.8,245.4-279.9,456.3-563.6,644.2c-500.4,331.7-1384.2,580.9-2329.3,655.6C4223,5007.1,3674.7,5022.5,3471.5,5012.9z M4612.1,4171.3c554-59.4,1060.1-176.4,1451.2-339.3c304.8-126.5,542.5-297.2,580.9-417.9c40.2-126.5-245.4-341.2-676.7-508C5402,2687.4,4639,2570.5,3789.7,2570.5c-694,0-1198.2,55.6-1729.2,191.7c-722.7,184-1215.4,477.4-1140.7,676.7c24.9,63.3,178.3,195.5,318.2,274.2C1956.9,4113.7,3350.7,4303.5,4612.1,4171.3z M1052.1,2265.7c458.2-230.1,1296-421.8,2112.7-483.1c373.8-28.8,1223.1-11.5,1562.4,28.8c717,88.2,1297.9,235.8,1748.4,442.9c80.5,36.4,153.4,67.1,161,67.1c9.6,0,17.3-132.3,17.3-295.2c0-274.2-3.8-297.1-44.1-358.5c-174.5-258.8-902.9-544.5-1681.3-657.6c-410.3-59.4-655.7-74.8-1159.8-74.8c-536.8,0-862.7,24.9-1305.6,103.5c-718.9,124.6-1353.5,387.3-1516.4,628.8c-40.3,61.4-44.1,84.4-44.1,358.5c0,189.8,7.7,295.2,19.2,295.2C933.2,2321.3,990.7,2296.3,1052.1,2265.7z"/><path d="M8120.4,482.7c-97.8-46-3046.3-2994.5-3077-3077c-44.1-116.9-440.9-1738.8-440.9-1800.2c0-103.5,90.1-258.8,184-320.1c155.3-97.8,151.4-97.8,1121.5,143.8c488.8,122.7,914.4,237.7,947,258.8c93.9,59.4,2973.4,2956.2,3011.8,3029c44.1,88.2,44.1,256.9,0,345.1c-19.2,36.4-325.9,358.5-680.6,717c-682.5,686.3-747.7,740-912.5,740C8231.6,519.2,8162.6,501.9,8120.4,482.7z M8618.9-784.5l325.9-325.9L8613.1-1442l-329.7-329.7L7953.6-1442L7622-1110.4l325.9,325.9c178.3,178.3,329.7,325.9,335.5,325.9S8440.6-606.2,8618.9-784.5z M7391.9-2011.4l325.9-325.9l-634.6-634.6l-632.6-632.6l-444.8-113.1c-245.4-61.4-444.8-107.4-444.8-101.6c0,3.9,47.9,199.4,105.4,433.3l107.4,425.6l636.5,638.4c350.8,348.9,640.3,636.5,646.1,636.5C7062.2-1685.5,7213.7-1833.1,7391.9-2011.4z"/></g></g>
</svg>